<?xml version="1.0" encoding="utf-8"?>
<!-- Generator: Adobe Illustrator 16.0.4, SVG Export Plug-In . SVG Version: 6.00 Build 0)  -->
<!DOCTYPE svg PUBLIC "-//W3C//DTD SVG 1.1//EN" "http://www.w3.org/Graphics/SVG/1.1/DTD/svg11.dtd">
<svg version="1.1" id="Layer_1" xmlns="http://www.w3.org/2000/svg" xmlns:xlink="http://www.w3.org/1999/xlink" x="0px" y="0px"
	 width="500px" height="500px" viewBox="0 0 500 500" enable-background="new 0 0 500 500" xml:space="preserve">
<title>Instagram icon</title>
<path fill="#FFFFFF" stroke="#000000" stroke-width="2" stroke-miterlimit="10" d="M250,0c-67.917,0-76.396,0.312-103.062,1.5
	c-26.625,1.25-44.75,5.438-60.688,11.625C69.812,19.5,55.854,28.062,41.958,41.958C28.062,55.854,19.479,69.792,13.125,86.25
	C6.938,102.188,2.729,120.312,1.5,146.938C0.25,173.604,0,182.083,0,250c0,67.916,0.312,76.396,1.5,103.062
	c1.25,26.604,5.438,44.75,11.625,60.688c6.375,16.417,14.938,30.396,28.833,44.292c13.896,13.875,27.833,22.479,44.292,28.833
	c15.958,6.167,34.083,10.396,60.688,11.625c26.667,1.25,35.146,1.5,103.062,1.5c67.917,0,76.396-0.312,103.062-1.5
	c26.604-1.25,44.75-5.458,60.688-11.625c16.417-6.375,30.396-14.958,44.292-28.833c13.875-13.896,22.479-27.812,28.833-44.292
	c6.167-15.938,10.396-34.084,11.625-60.688c1.25-26.666,1.5-35.146,1.5-103.062c0-67.917-0.312-76.396-1.5-103.062
	c-1.25-26.604-5.458-44.771-11.625-60.688c-6.375-16.438-14.958-30.396-28.833-44.292c-13.896-13.896-27.812-22.479-44.292-28.833
	C397.812,6.938,379.667,2.729,353.062,1.5C326.396,0.25,317.917,0,250,0z M250,45c66.729,0,74.688,0.333,101.042,1.479
	c24.375,1.146,37.604,5.188,46.396,8.646c11.708,4.521,20,9.938,28.792,18.667c8.729,8.75,14.146,17.062,18.666,28.771
	c3.417,8.792,7.5,22.021,8.604,46.396c1.188,26.375,1.458,34.292,1.458,101.042s-0.312,74.688-1.541,101.041
	c-1.271,24.375-5.334,37.605-8.771,46.396c-4.666,11.709-9.979,20-18.729,28.792c-8.729,8.729-17.167,14.146-28.75,18.666
	c-8.75,3.417-22.188,7.5-46.562,8.604c-26.542,1.188-34.354,1.458-101.229,1.458c-66.896,0-74.708-0.312-101.229-1.541
	c-24.396-1.271-37.833-5.334-46.583-8.771c-11.854-4.666-20-9.979-28.729-18.729c-8.771-8.729-14.375-17.167-18.75-28.751
	c-3.438-8.75-7.479-22.188-8.75-46.562c-0.938-26.25-1.271-34.354-1.271-100.916c0-66.583,0.333-74.708,1.271-101.271
	c1.271-24.375,5.312-37.792,8.75-46.542c4.375-11.875,9.979-20,18.75-28.771c8.729-8.729,16.875-14.354,28.729-18.708
	c8.75-3.458,21.896-7.521,46.271-8.771c26.562-0.938,34.375-1.25,101.229-1.25L250,45z M250,121.625
	c-70.938,0-128.375,57.5-128.375,128.375c0,70.938,57.5,128.375,128.375,128.375c70.938,0,128.375-57.5,128.375-128.375
	C378.375,179.062,320.875,121.625,250,121.625z M250,333.334c-46.042,0-83.333-37.293-83.333-83.334
	c0-46.042,37.292-83.333,83.333-83.333c46.041,0,83.333,37.292,83.333,83.333C333.333,296.041,296.041,333.334,250,333.334z
	 M413.458,116.562c0,16.562-13.458,30-30,30c-16.562,0-30-13.458-30-30s13.459-29.979,30-29.979
	C399.979,86.562,413.458,100.021,413.458,116.562z"/>
</svg>
