<?xml version="1.0" encoding="utf-8"?>
<!-- Generator: Adobe Illustrator 16.0.4, SVG Export Plug-In . SVG Version: 6.00 Build 0)  -->
<!DOCTYPE svg PUBLIC "-//W3C//DTD SVG 1.1//EN" "http://www.w3.org/Graphics/SVG/1.1/DTD/svg11.dtd">
<svg version="1.1" id="Layer_1" xmlns="http://www.w3.org/2000/svg" xmlns:xlink="http://www.w3.org/1999/xlink" x="0px" y="0px"
	 width="500px" height="500px" viewBox="0 0 500 500" enable-background="new 0 0 500 500" xml:space="preserve">
<title>LinkedIn icon</title>
<path fill="#FFFFFF" stroke="#000000" stroke-width="2" stroke-miterlimit="10" d="M425.979,426.083h-74.042V310.062
	c0-27.666-0.562-63.271-38.583-63.271c-38.604,0-44.501,30.105-44.501,61.23v118.062h-74.041V187.5h71.125v32.521h0.959
	c9.938-18.75,34.104-38.542,70.208-38.542c75.021,0,88.896,49.375,88.896,113.646v130.958H425.979z M111.188,154.854
	c-23.833,0-42.979-19.292-42.979-43.021c0-23.708,19.167-42.979,42.979-42.979c23.75,0,43,19.271,43,42.979
	C154.188,135.562,134.917,154.854,111.188,154.854z M148.312,426.083h-74.25V187.5h74.25V426.083z M463.021,0H36.896
	C16.5,0,0,16.125,0,36.021v427.958C0,483.896,16.5,500,36.896,500h426.062C483.333,500,500,483.896,500,463.979V36.021
	C500,16.125,483.333,0,462.958,0H463.021z"/>
</svg>
