<?xml version="1.0" encoding="utf-8"?>
<!-- Generator: Adobe Illustrator 16.0.4, SVG Export Plug-In . SVG Version: 6.00 Build 0)  -->
<!DOCTYPE svg PUBLIC "-//W3C//DTD SVG 1.1//EN" "http://www.w3.org/Graphics/SVG/1.1/DTD/svg11.dtd">
<svg version="1.1" id="Layer_1" xmlns="http://www.w3.org/2000/svg" xmlns:xlink="http://www.w3.org/1999/xlink" x="0px" y="0px"
	 width="500px" height="500px" viewBox="0 0 500 500" enable-background="new 0 0 500 500" xml:space="preserve">
<title>Spotify icon</title>
<path fill="#FFFFFF" stroke="#000000" stroke-width="2" stroke-miterlimit="10" d="M250,0C112.5,0,0,112.5,0,250s112.5,250,250,250
	s250-112.5,250-250S388.75,0,250,0z M365.021,361.25c-5,7.479-13.75,10-21.271,5C285,330,211.25,322.479,123.729,342.479
	c-8.708,2.543-16.229-3.729-18.729-11.229c-2.5-8.771,3.75-16.25,11.25-18.75c95-21.271,177.5-12.5,242.5,27.5
	C367.5,343.75,368.729,353.729,365.021,361.25L365.021,361.25z M395.021,292.5c-6.271,8.75-17.521,12.5-26.291,6.25
	C301.25,257.5,198.75,245,120,270c-9.979,2.5-21.25-2.5-23.75-12.5s2.5-21.271,12.5-23.771C200,206.25,312.5,220.021,390,267.5
	C397.521,271.271,401.25,283.75,395.021,292.5L395.021,292.5z M397.521,222.5C317.5,175,183.75,170,107.5,193.771
	C95,197.5,82.5,190,78.75,178.75c-3.75-12.521,3.75-25,15-28.771c88.75-26.25,235-21.25,327.521,33.771
	C432.5,190,436.25,205,430,216.25C423.771,225.021,408.75,228.729,397.521,222.5z"/>
</svg>
